<?xml version="1.0" encoding="UTF-8" standalone="no"?>
<!DOCTYPE svg PUBLIC "-//W3C//DTD SVG 1.1//EN" "http://www.w3.org/Graphics/SVG/1.1/DTD/svg11.dtd">
<svg width="100%" height="100%" viewBox="0 0 3000 3000" version="1.1" xmlns="http://www.w3.org/2000/svg" xmlns:xlink="http://www.w3.org/1999/xlink" xml:space="preserve" xmlns:serif="http://www.serif.com/" style="fill-rule:evenodd;clip-rule:evenodd;stroke-linejoin:round;stroke-miterlimit:2;">
    <g transform="matrix(2.77778,0,0,2.77778,0,0)">
        <g transform="matrix(1.53327,0,0,1.37447,-479.257,318.798)">
            <g transform="matrix(766.789,0,0,766.789,458.442,487.426)">
                <path d="M0.405,-0.801C0.411,-0.755 0.413,-0.724 0.413,-0.639L0.413,-0.223C0.413,-0.154 0.382,-0.121 0.315,-0.121C0.251,-0.121 0.221,-0.149 0.2,-0.227L0.005,-0.16C0.028,-0.1 0.042,-0.075 0.071,-0.043C0.127,0.019 0.209,0.05 0.318,0.05C0.416,0.05 0.497,0.021 0.548,-0.031C0.595,-0.078 0.617,-0.141 0.617,-0.223L0.617,-0.64C0.617,-0.727 0.618,-0.757 0.625,-0.801L0.405,-0.801Z" style="fill:white;fill-rule:nonzero;"/>
            </g>
        </g>
        <g transform="matrix(1.53327,0,0,1.37447,-533.257,285.798)">
            <g transform="matrix(766.789,0,0,766.789,458.442,487.426)">
                <path d="M0.405,-0.801C0.411,-0.755 0.413,-0.724 0.413,-0.639L0.413,-0.223C0.413,-0.154 0.382,-0.121 0.315,-0.121C0.251,-0.121 0.221,-0.149 0.2,-0.227L0.005,-0.16C0.028,-0.1 0.042,-0.075 0.071,-0.043C0.127,0.019 0.209,0.05 0.318,0.05C0.416,0.05 0.497,0.021 0.548,-0.031C0.595,-0.078 0.617,-0.141 0.617,-0.223L0.617,-0.64C0.617,-0.727 0.618,-0.757 0.625,-0.801L0.405,-0.801Z" style="fill:rgb(79,156,107);fill-rule:nonzero;"/>
            </g>
        </g>
    </g>
</svg>
